<?xml version="1.0" encoding="UTF-8"?>
<svg width="1024" height="1024" viewBox="0 0 1024 1024" xmlns="http://www.w3.org/2000/svg">
  <!-- Background Gradient -->
  <defs>
    <linearGradient id="bgGradient" x1="0%" y1="0%" x2="100%" y2="100%">
      <stop offset="0%" style="stop-color:#1a2a6c;stop-opacity:1" />
      <stop offset="50%" style="stop-color:#2563eb;stop-opacity:1" />
      <stop offset="100%" style="stop-color:#06b6d4;stop-opacity:1" />
    </linearGradient>

    <!-- Grid Pattern -->
    <pattern id="grid" width="80" height="80" patternUnits="userSpaceOnUse">
      <path d="M 80 0 L 0 0 0 80" fill="none" stroke="rgba(255,255,255,0.15)" stroke-width="2"/>
    </pattern>

    <!-- Glow effect for airplane -->
    <filter id="glow">
      <feGaussianBlur stdDeviation="8" result="coloredBlur"/>
      <feMerge>
        <feMergeNode in="coloredBlur"/>
        <feMergeNode in="SourceGraphic"/>
      </feMerge>
    </filter>
  </defs>

  <!-- Background with gradient -->
  <rect width="1024" height="1024" fill="url(#bgGradient)" rx="180"/>

  <!-- Grid overlay -->
  <rect width="1024" height="1024" fill="url(#grid)"/>

  <!-- Target rings -->
  <circle cx="512" cy="512" r="380" fill="none" stroke="rgba(255,255,255,0.2)" stroke-width="3"/>
  <circle cx="512" cy="512" r="320" fill="none" stroke="rgba(255,255,255,0.15)" stroke-width="2"/>
  <circle cx="512" cy="512" r="260" fill="none" stroke="rgba(255,255,255,0.1)" stroke-width="2"/>

  <!-- Crosshair lines -->
  <line x1="512" y1="132" x2="512" y2="200" stroke="rgba(255,255,255,0.3)" stroke-width="4"/>
  <line x1="512" y1="824" x2="512" y2="892" stroke="rgba(255,255,255,0.3)" stroke-width="4"/>
  <line x1="132" y1="512" x2="200" y2="512" stroke="rgba(255,255,255,0.3)" stroke-width="4"/>
  <line x1="824" y1="512" x2="892" y2="512" stroke="rgba(255,255,255,0.3)" stroke-width="4"/>

  <!-- Airplane silhouette (stylized) -->
  <g transform="translate(512, 512)" filter="url(#glow)">
    <!-- Main body -->
    <path d="M 0,-180 L -20,-100 L -30,-50 L -25,80 L 0,100 L 25,80 L 30,-50 L 20,-100 Z"
          fill="#FCD34D" stroke="#F59E0B" stroke-width="4"/>

    <!-- Wings (left) -->
    <path d="M -30,-20 L -180,-10 L -200,0 L -180,10 L -30,0 Z"
          fill="#FCD34D" stroke="#F59E0B" stroke-width="4"/>

    <!-- Wings (right) -->
    <path d="M 30,-20 L 180,-10 L 200,0 L 180,10 L 30,0 Z"
          fill="#FCD34D" stroke="#F59E0B" stroke-width="4"/>

    <!-- Tail wings (left) -->
    <path d="M -25,60 L -80,85 L -85,95 L -75,100 L -25,75 Z"
          fill="#FCD34D" stroke="#F59E0B" stroke-width="3"/>

    <!-- Tail wings (right) -->
    <path d="M 25,60 L 80,85 L 85,95 L 75,100 L 25,75 Z"
          fill="#FCD34D" stroke="#F59E0B" stroke-width="3"/>

    <!-- Cockpit window -->
    <ellipse cx="0" cy="-100" rx="12" ry="18" fill="#1e40af" opacity="0.6"/>

    <!-- Nose cone highlight -->
    <circle cx="0" cy="-165" r="8" fill="white" opacity="0.8"/>

    <!-- Wing tips highlights -->
    <circle cx="-185" cy="0" r="6" fill="white" opacity="0.7"/>
    <circle cx="185" cy="0" r="6" fill="white" opacity="0.7"/>
  </g>

  <!-- Targeting reticle at corners -->
  <g stroke="#10b981" stroke-width="4" fill="none" opacity="0.6">
    <!-- Top-left -->
    <path d="M 100,100 L 100,150 M 100,100 L 150,100"/>
    <!-- Top-right -->
    <path d="M 924,100 L 924,150 M 924,100 L 874,100"/>
    <!-- Bottom-left -->
    <path d="M 100,924 L 100,874 M 100,924 L 150,924"/>
    <!-- Bottom-right -->
    <path d="M 924,924 L 924,874 M 924,924 L 874,924"/>
  </g>

  <!-- Small decorative crosshair in center -->
  <g stroke="white" stroke-width="3" opacity="0.4">
    <circle cx="512" cy="512" r="30" fill="none"/>
    <line x1="482" y1="512" x2="492" y2="512"/>
    <line x1="532" y1="512" x2="542" y2="512"/>
    <line x1="512" y1="482" x2="512" y2="492"/>
    <line x1="512" y1="532" x2="512" y2="542"/>
  </g>
</svg>
